<?xml version="1.0" encoding="utf-8"?>
<svg width="16" height="16" viewBox="384 384 400 400" fill="none" xmlns="http://www.w3.org/2000/svg">
	<path d="M 651.65 516.35 C 642.53 448.03 619.45 391 584 391 C 548.55 391 525.47 448.03 516.35 516.35 C 448.03 525.47 391 548.55 391 584 C 391 619.45 448.04 642.53 516.35 651.65 C 525.47 719.96 548.55 777 584 777 C 619.45 777 642.53 719.96 651.65 651.65 C 719.97 642.53 777 619.45 777 584 C 777 548.55 719.96 525.47 651.65 516.35 Z M 514.12 631.75 C 448.69 622.3 410.53 600.67 410.53 584 C 410.53 567.33 448.69 545.7 514.12 536.25 C 512.68 552 511.93 568.08 511.93 584 C 511.93 599.92 512.68 616.01 514.12 631.75 Z M 584 410.53 C 600.67 410.53 622.3 448.69 631.75 514.12 C 616.01 512.68 599.92 511.93 584 511.93 C 568.08 511.93 551.99 512.68 536.25 514.12 C 545.7 448.69 567.33 410.53 584 410.53 Z M 653.88 631.75 C 650.66 632.22 637.45 633.77 634.11 634.1 C 633.78 637.45 632.22 650.65 631.76 653.87 C 622.31 719.3 600.68 757.46 584.01 757.46 C 567.34 757.46 545.71 719.3 536.26 653.87 C 535.8 650.65 534.24 637.44 533.91 634.1 C 532.39 618.59 531.47 601.93 531.47 584 C 531.47 566.07 532.39 549.41 533.91 533.89 C 549.42 532.37 566.08 531.45 584.01 531.45 C 601.94 531.45 618.6 532.37 634.11 533.89 C 637.46 534.22 650.66 535.78 653.88 536.24 C 719.31 545.69 757.48 567.33 757.48 583.99 C 757.48 600.65 719.31 622.3 653.88 631.75 Z"
		  stroke="#6C707E"
		  fill="#6C707E"
		  stroke-width="8"
	/>
</svg>